PathFileType	3	(X/Y/Z)	F:\ViconData\AntennenMessung\Messung1\Session1\ID03.trc
DataRate	CameraRate	NumFrames	NumMarkers	Units	OrigDataRate	OrigDataStartFrame	OrigNumFrames
120.0	120.0	4	70	mm	120.0	146	1160	
Frame#	Time	Ashort			Along			Atop			A4			Bshort			Blong			Btop			B4			Cshort			Clong			Ctop			C4			Dshort			Dlong			Dtop			D4			Eshort			Elong			Etop			E4			Fshort			Flong			Ftop			F4			Gshort			Glong			Gtop			G4			Hshort			Hlong			Htop			H4			I1			I2			I3			I4			I5			WandAshort			WandAlong			WandAtop			WandA4			WandA15			WandBshort			WandB4			WandB5			WandBtop			WandBlong			WandCshort			WandClong			WandCtop			WandC4			WandC5			Acenter			Aantenna			Bcenter			Bantenna			Ccenter			Cantenna			Dcenter			Dantenna			Ecenter			Eantenna			Fcenter			Fantenna			Gcenter			Gantenna			Hcenter			Hantenna			Icenter			Iantenna			
		X1	Y1	Z1	X2	Y2	Z2	X3	Y3	Z3	X4	Y4	Z4	X5	Y5	Z5	X6	Y6	Z6	X7	Y7	Z7	X8	Y8	Z8	X9	Y9	Z9	X10	Y10	Z10	X11	Y11	Z11	X12	Y12	Z12	X13	Y13	Z13	X14	Y14	Z14	X15	Y15	Z15	X16	Y16	Z16	X17	Y17	Z17	X18	Y18	Z18	X19	Y19	Z19	X20	Y20	Z20	X21	Y21	Z21	X22	Y22	Z22	X23	Y23	Z23	X24	Y24	Z24	X25	Y25	Z25	X26	Y26	Z26	X27	Y27	Z27	X28	Y28	Z28	X29	Y29	Z29	X30	Y30	Z30	X31	Y31	Z31	X32	Y32	Z32	X33	Y33	Z33	X34	Y34	Z34	X35	Y35	Z35	X36	Y36	Z36	X37	Y37	Z37	X38	Y38	Z38	X39	Y39	Z39	X40	Y40	Z40	X41	Y41	Z41	X42	Y42	Z42	X43	Y43	Z43	X44	Y44	Z44	X45	Y45	Z45	X46	Y46	Z46	X47	Y47	Z47	X48	Y48	Z48	X49	Y49	Z49	X50	Y50	Z50	X51	Y51	Z51	X52	Y52	Z52	X53	Y53	Z53	X54	Y54	Z54	X55	Y55	Z55	X56	Y56	Z56	X57	Y57	Z57	X58	Y58	Z58	X59	Y59	Z59	X60	Y60	Z60	X61	Y61	Z61	X62	Y62	Z62	X63	Y63	Z63	X64	Y64	Z64	X65	Y65	Z65	X66	Y66	Z66	X67	Y67	Z67	X68	Y68	Z68	X69	Y69	Z69	X70	Y70	Z70	
146	1.2083333	-1038.3184	214.64177	-1644.2041	-1109.291	203.43105	-1599.5778	-1063.7236	172.64366	-1625.4861	-1054.1917	262.06888	-1634.9598	-1352.944	235.28496	1003.9196	-1281.3911	227.12206	1052.3058	-1323.1388	194.20271	1020.7937	-1284.6537	287.93005	1052.7646	813.8551	187.68939	1209.3956	892.26562	178.44322	1179.184	844.48621	145.32185	1198.1851	860.48883	292.39041	1167.2389	1115.7476	209.47171	-1401.5728	1056.2664	194.03392	-1460.1211	1095.0798	162.04546	-1423.8845	1069.9044	238.64186	-1425.9291	-1204.4769	1685.9388	-1563.3323	-1129.1169	1688.2268	-1606.1127	-1173.1136	1724.3911	-1581.9673	-1133.5184	1581.0529	-1603.5092	-1239.7312	1699.2225	1119.2754	-1309.4398	1698.775	1071.7784	-1270.3805	1736.1583	1096.6716	-1244.7355	1593.8651	1106.494	988.82922	1664.2408	1162.2528	955.92078	1702.3409	1181.203	922.71851	1662.0182	1214.8173	939.79767	1659.2917	1159.9294	999.18506	1668.568	-1579.5265	1058.7136	1669.9474	-1518.6802	1025.0555	1708.0143	-1551.1454	1059.2753	1672.1842	-1585.6294	-552.53632	1664.1598	-294.37527	-557.36292	1664.9545	-210.05353	-555.36395	1701.3732	-257.00745	-586.80859	1662.4922	-259.52258	-507.36212	1666.6013	-254.42705																																														-1069.1627	209.76962	-1624.8097	-1074.8151	248.35144	-1624.1068	-1321.724	231.72331	1025.0315	-1320.2639	270.44974	1029.4054	848.22174	183.63687	1196.1542	852.00092	222.39893	1194.0994	1088.7671	202.46919	-1428.1299	1082.7819	240.79639	-1432.1554	-1171.8969	1686.9279	-1581.8273	-1170.6309	1647.9487	-1581.6819	-1271.0183	1699.0217	1097.9574	-1271.6875	1660.0508	1099.3068	953.72205	1704.8864	1182.4691	973.22095	1731.8473	1162.1245	1026.464	1669.2001	-1551.6436	1027.8784	1630.2289	-1552.1439	-554.69727	1664.5155	-256.62192	-553.992	1625.5239	-256.21408
147	1.2166667	-1038.2854	214.48067	-1644.2047	-1109.2983	203.39571	-1599.5635	-1063.6593	173.02513	-1625.7366	-1054.2406	262.10062	-1634.9794	-1352.9009	235.31894	1003.9384	-1281.347	227.29524	1052.1825	-1323.0525	194.2146	1020.794	-1284.7091	287.80029	1052.8215	813.84119	187.69737	1209.4471	892.38934	178.4599	1179.094	844.31982	145.56812	1198.1652	860.55353	292.60529	1167.2946	1115.7987	209.75883	-1401.7297	1056.2438	194.04399	-1460.1532	1094.9905	162.0894	-1423.8878	1069.8809	238.57211	-1425.9357	-1204.4431	1685.9391	-1563.3325	-1129.1249	1688.2224	-1606.0652	-1173.1107	1724.3925	-1581.9756	-1133.5369	1581.0582	-1603.5123	-1239.739	1699.243	1119.2784	-1309.4559	1698.8156	1071.7909	-1270.407	1736.2045	1096.6942	-1244.6172	1594.1992	1106.4247	988.85162	1664.2719	1162.2471	955.82507	1702.2465	1181.1105	922.58551	1662.1252	1214.8447	939.74634	1659.2708	1159.8978	999.18915	1668.5883	-1579.5388	1058.7106	1669.9303	-1518.6897	1025.0541	1708.0077	-1551.1538	1059.272	1672.1958	-1585.6512	-552.53381	1664.1511	-294.3678	-557.3667	1664.9707	-210.03896	-555.36279	1701.3721	-257.00415	-586.80048	1662.4867	-259.5238	-507.36713	1666.5975	-254.44635																																														-1068.897	209.70224	-1624.9612	-1074.4093	248.30211	-1624.1449	-1321.6689	231.81676	1024.996	-1320.2439	270.54962	1029.3242	848.05212	183.67406	1196.2271	851.84906	222.43867	1194.2554	1088.6707	202.60051	-1428.3423	1082.6945	240.90901	-1432.5546	-1171.8796	1686.9261	-1581.8076	-1170.599	1647.9475	-1581.6331	-1271.0398	1699.0511	1097.9579	-1271.7037	1660.0792	1099.2834	953.41791	1705.0143	1182.4854	972.82959	1732.0166	1162.1124	1026.4532	1669.203	-1551.6665	1027.8584	1630.2317	-1552.1815	-554.69775	1664.5179	-256.60776	-553.9942	1625.5266	-256.18845
148	1.225	-1038.3198	214.50972	-1644.2373	-1109.2891	203.39104	-1599.5449	-1063.561	172.61955	-1625.6122	-1054.1888	262.09387	-1634.9764	-1353.1344	235.00739	1003.9494	-1281.4753	227.31361	1052.2495	-1323.1036	194.19461	1020.8433	-1284.7214	287.83432	1052.8232	813.85364	187.6908	1209.4669	892.23425	178.39282	1179.2871	844.50305	145.28513	1198.1844	860.39203	292.43997	1167.3309	1115.7506	209.47015	-1401.571	1056.2573	194.02022	-1460.1149	1095.0989	162.24767	-1423.8907	1069.8824	238.62292	-1425.9652	-1204.47	1685.9327	-1563.3381	-1129.12	1688.3527	-1606.6506	-1173.1157	1724.3864	-1581.9681	-1133.5421	1581.0476	-1603.4915	-1239.7408	1699.2515	1119.288	-1309.4762	1698.8469	1071.8069	-1270.4091	1736.1951	1096.6859	-1244.6884	1593.8983	1106.4563	988.84308	1664.2799	1162.234	955.82568	1702.3094	1181.1738	922.60614	1662.0807	1214.8169	939.78235	1659.2809	1159.8871	999.18579	1668.5918	-1579.5381	1058.7076	1669.9055	-1518.6796	1025.0612	1708.0105	-1551.1548	1059.2991	1672.2156	-1585.653	-552.53186	1664.146	-294.37012	-557.35071	1664.9508	-210.04927	-555.35547	1701.3706	-257.00888	-586.79633	1662.4866	-259.51001	-507.35022	1666.5983	-254.44781																																														-1068.9528	209.71046	-1624.9463	-1074.5621	248.29875	-1624.2537	-1321.8898	231.65277	1025.009	-1320.6343	270.39374	1029.3175	848.2879	183.60599	1196.2083	852.11615	222.36612	1194.2094	1088.7935	202.4696	-1428.0979	1082.7855	240.79495	-1432.1066	-1171.9503	1686.9771	-1582.0309	-1170.736	1647.9961	-1582.0963	-1271.0625	1699.0696	1097.9618	-1271.7484	1660.0986	1099.3014	953.49762	1704.9908	1182.509	972.9411	1731.999	1162.1742	1026.4431	1669.1934	-1551.6686	1027.8308	1630.2214	-1552.1844	-554.68921	1664.5062	-256.6189	-553.98456	1625.5148	-256.20642
149	1.2333333	-1038.3378	214.6225	-1644.1737	-1109.3011	203.42204	-1599.5575	-1063.6123	172.4326	-1625.4517	-1054.1801	262.10275	-1634.9821	-1353.088	235.22394	1003.9626	-1281.3939	227.29568	1052.2068	-1323.1379	194.14311	1020.8219	-1284.6068	287.89578	1052.7378	813.84698	187.66867	1209.5181	892.3443	178.40384	1179.2832	844.26001	145.55632	1198.1708	860.48181	292.60306	1167.1896	1115.7531	209.46031	-1401.5696	1056.2296	194.04778	-1460.1915	1095.0382	162.17355	-1423.9426	1069.9115	238.63951	-1425.9227	-1204.4447	1685.931	-1563.334	-1129.1331	1688.3168	-1606.5939	-1173.1066	1724.3795	-1581.9629	-1133.506	1581.0165	-1603.4762	-1239.7427	1699.2396	1119.2908	-1309.589	1699.0555	1071.8899	-1270.3965	1736.1865	1096.6819	-1244.614	1594.1569	1106.4308	988.83405	1664.2585	1162.2363	955.89526	1702.3553	1181.0812	922.00842	1662.2018	1214.7827	939.74609	1659.307	1159.9006	999.19812	1668.5913	-1579.5419	1058.884	1670.1615	-1518.6511	1025.0646	1708.0103	-1551.1514	1059.2966	1672.1874	-1585.6591	-552.52026	1664.1377	-294.37619	-557.36597	1664.9586	-210.03691	-555.35638	1701.3853	-257.00836	-586.80603	1662.4844	-259.51648	-507.37943	1666.5909	-254.4268																																														-1069.1112	209.76538	-1624.8257	-1074.7936	248.34377	-1624.179	-1321.8003	231.76399	1025.0166	-1320.423	270.49963	1029.3354	848.05029	183.63173	1196.3439	851.90912	222.39577	1194.484	1088.7557	202.46983	-1428.158	1082.7798	240.80011	-1432.1677	-1171.9438	1686.9606	-1582.0027	-1170.7329	1647.9794	-1582.0441	-1271.1687	1699.1566	1097.9636	-1271.9813	1660.1885	1099.3124	953.37115	1705.2745	1182.5251	973.00903	1732.2448	1162.3271	1026.5641	1669.3112	-1551.6233	1028.0741	1630.3433	-1552.0986	-554.69	1664.5052	-256.61118	-553.98553	1625.5139	-256.19122
